<?xml version="1.0" encoding="utf-8"?>
<!-- Generator: Adobe Illustrator 25.2.3, SVG Export Plug-In . SVG Version: 6.00 Build 0)  -->
<svg version="1.1" xmlns="http://www.w3.org/2000/svg" xmlns:xlink="http://www.w3.org/1999/xlink" x="0px" y="0px"
	 viewBox="0 0 290 290" style="enable-background:new 0 0 290 290;" xml:space="preserve">
<style type="text/css">
	.st0{fill:#0058C3;}
	.st1{fill:#FFFFFF;}
</style>
<g id="BACKGROUND">
</g>
<g id="OBJECTS">
	<circle class="st0" cx="145" cy="145" r="145"/>
	<g>
		<g>
			<path class="st1" d="M78.4,205.4h133.3c11.1,0,20.2-9.1,20.2-20.2v-78.8c0-11.1-9.1-20.2-20.2-20.2h-8.3l-5.6,11.4h13.9
				c4.8,0,8.8,3.9,8.8,8.7v78.8c0,4.8-3.9,8.7-8.8,8.7H78.4c-4.8,0-8.8-3.9-8.8-8.7v-78.8c0-4.8,3.9-8.7,8.8-8.7h13.9l-5.6-11.4
				h-8.3c-11.1,0-20.2,9-20.2,20.2v78.8C58.2,196.3,67.2,205.4,78.4,205.4z"/>
			<path class="st1" d="M250.9,217.5c0,7.3-5.9,13.2-13.2,13.2H52.3c-7.3,0-13.2-5.9-13.2-13.2h79.3c1.6,3.9,5.4,6.6,9.8,6.6h33.6
				c2.9,0,5.5-1.2,7.4-3.1c1-1,1.8-2.2,2.3-3.5H250.9z"/>
			<path class="st1" d="M180.6,115.5L206,63.6c8.1-0.8,14.5-7.7,14.5-16.1c0-8.9-7.3-16.2-16.2-16.2c-8.9,0-16.2,7.2-16.2,16.2
				c0,6,3.3,11.3,8.2,14l-25.4,51.7v59.3h9.5V115.5z M204.4,40.9c3.7,0,6.6,3,6.6,6.6c0,3.7-3,6.6-6.6,6.6c-3.7,0-6.6-3-6.6-6.6
				C197.8,43.8,200.7,40.9,204.4,40.9z"/>
			<path class="st1" d="M140.3,62.9v109.6h9.5V62.9c6.6-2,11.4-8.2,11.4-15.4c0-8.9-7.2-16.2-16.2-16.2c-8.9,0-16.2,7.2-16.2,16.2
				C128.8,54.8,133.7,60.9,140.3,62.9z M145,40.9c3.7,0,6.6,3,6.6,6.6c0,3.7-3,6.6-6.6,6.6c-3.7,0-6.6-3-6.6-6.6
				C138.4,43.8,141.3,40.9,145,40.9z"/>
			<path class="st1" d="M84,63.6l25.5,51.9v57.1h9.5v-59.3L93.6,61.5c4.9-2.8,8.2-8,8.2-14c0-8.9-7.2-16.2-16.2-16.2
				c-8.9,0-16.2,7.2-16.2,16.2C69.5,55.9,75.8,62.8,84,63.6z M85.6,40.9c3.7,0,6.6,3,6.6,6.6c0,3.7-3,6.6-6.6,6.6
				c-3.7,0-6.6-3-6.6-6.6C79,43.8,82,40.9,85.6,40.9z"/>
			<rect x="124.3" y="91.8" class="st1" width="9.5" height="80.8"/>
			<rect x="155.7" y="91.8" class="st1" width="9.5" height="80.8"/>
		</g>
	</g>
</g>
</svg>
