<?xml version="1.0" standalone="no"?>
<!DOCTYPE svg PUBLIC "-//W3C//DTD SVG 20010904//EN"
 "http://www.w3.org/TR/2001/REC-SVG-20010904/DTD/svg10.dtd">
<svg version="1.0" xmlns="http://www.w3.org/2000/svg"
 width="700.000000pt" height="700.000000pt" viewBox="0 0 700.000000 700.000000"
 preserveAspectRatio="xMidYMid meet">
<metadata>
Created by potrace 1.14, written by Peter Selinger 2001-2017
</metadata>
<g transform="translate(0.000000,700.000000) scale(0.100000,-0.100000)"
fill="#000000" stroke="none">
<path d="M3280 6994 c-19 -2 -84 -9 -145 -14 -578 -56 -1180 -283 -1660 -625
-237 -169 -531 -446 -709 -670 -416 -521 -673 -1147 -748 -1820 -17 -155 -17
-575 0 -730 52 -469 198 -931 418 -1327 290 -523 731 -983 1239 -1294 439
-269 920 -432 1460 -496 145 -17 576 -17 730 0 822 91 1556 447 2131 1034 203
206 348 390 487 618 274 449 433 916 499 1465 16 136 16 592 0 730 -86 725
-352 1347 -803 1885 -122 145 -351 370 -494 484 -510 407 -1117 661 -1775 742
-117 15 -553 27 -630 18z m-1045 -789 c155 -75 247 -255 215 -418 -6 -34 -23
-83 -36 -109 -25 -48 -90 -122 -132 -148 l-23 -15 306 -622 305 -623 0 -720 0
-721 -112 3 -113 3 -5 700 -5 700 -301 609 c-165 336 -307 613 -315 617 -8 4
-36 13 -63 20 -110 28 -217 130 -258 246 -30 85 -23 217 16 293 47 95 144 178
246 211 14 5 68 7 120 6 82 -2 104 -7 155 -32z m1400 14 c259 -97 338 -427
151 -627 -26 -27 -73 -64 -106 -81 l-60 -32 0 -1320 0 -1319 -115 0 -115 0 0
1319 0 1320 -55 25 c-261 119 -301 475 -74 658 95 77 256 101 374 57z m1466
-16 c80 -39 150 -111 187 -191 24 -50 27 -69 27 -157 0 -91 -3 -106 -31 -165
-51 -109 -164 -200 -266 -217 -21 -3 -42 -11 -47 -17 -8 -9 -202 -404 -547
-1112 l-74 -151 0 -677 0 -676 -110 0 -110 0 0 719 0 718 304 619 303 618 -37
27 c-214 155 -209 482 10 634 70 49 134 66 235 63 79 -3 99 -7 156 -35z
m-2946 -1413 c36 -71 65 -134 65 -139 0 -6 -83 -11 -203 -13 l-204 -3 -41 -29
c-27 -18 -51 -47 -67 -80 l-25 -52 2 -999 c3 -958 4 -1002 22 -1038 22 -44 69
-83 123 -103 31 -11 332 -13 1666 -14 1142 0 1641 3 1671 11 56 14 114 62 137
113 18 39 19 90 19 1042 l0 1001 -23 44 c-13 24 -43 58 -66 74 l-43 30 -204 3
c-121 2 -204 7 -204 13 0 5 29 68 65 139 l65 130 123 0 c202 0 312 -39 422
-148 65 -66 118 -166 134 -256 15 -83 15 -1990 0 -2072 -24 -135 -129 -279
-248 -343 -120 -63 -34 -61 -1837 -61 -1136 0 -1659 3 -1700 11 -211 38 -370
214 -395 435 -6 58 -9 453 -7 1060 3 959 3 970 25 1031 28 84 73 152 140 213
107 98 200 128 395 129 l128 1 65 -130z m1075 -985 l0 -975 -115 0 -115 0 0
975 0 975 115 0 115 0 0 -975z m758 3 l-3 -973 -112 -3 -113 -3 0 976 0 975
115 0 115 0 -2 -972z m-1114 -2085 c18 -36 72 -86 116 -109 33 -18 66 -19 510
-19 444 0 477 1 510 19 44 23 98 73 116 109 l15 27 959 0 959 0 -5 -32 c-21
-120 -83 -206 -182 -255 l-57 -28 -2315 0 -2315 0 -57 28 c-99 48 -159 132
-183 255 l-7 32 961 0 960 0 15 -27z"/>
<path d="M1992 5993 c-46 -22 -74 -67 -80 -124 -8 -83 36 -147 116 -169 107
-28 216 77 192 185 -24 105 -131 156 -228 108z"/>
<path d="M3420 5988 c-76 -52 -98 -125 -61 -202 29 -58 78 -90 141 -90 63 0
112 32 141 90 50 105 -24 224 -141 224 -32 0 -57 -7 -80 -22z"/>
<path d="M4853 5990 c-118 -72 -91 -253 43 -289 72 -19 156 22 184 89 17 41 8
121 -18 157 -43 61 -145 82 -209 43z"/>
</g>
</svg>
